<?xml version="1.0" standalone="no"?>
<!DOCTYPE svg PUBLIC "-//W3C//DTD SVG 20010904//EN"
 "http://www.w3.org/TR/2001/REC-SVG-20010904/DTD/svg10.dtd">
<svg version="1.0" xmlns="http://www.w3.org/2000/svg"
 width="859.000000pt" height="859.000000pt" viewBox="0 0 859.000000 859.000000"
 preserveAspectRatio="xMidYMid meet">
<metadata>
Created by potrace 1.14, written by Peter Selinger 2001-2017
</metadata>
<g transform="translate(0.000000,859.000000) scale(0.100000,-0.100000)"
fill="#000000" stroke="none">
<path d="M6084 6903 c-100 -53 -231 -178 -382 -363 -29 -36 -61 -74 -70 -85
-9 -11 -39 -49 -66 -85 -27 -36 -53 -66 -58 -68 -4 -2 -8 -10 -8 -17 0 -7 -4
-15 -8 -17 -7 -2 -230 -308 -284 -388 -10 -14 -44 -63 -77 -110 -73 -103 -173
-249 -240 -350 -28 -41 -56 -82 -64 -90 -7 -8 -52 -73 -100 -145 -49 -71 -116
-170 -151 -220 -34 -49 -100 -146 -146 -215 -47 -69 -89 -129 -93 -135 -28
-36 -127 -189 -127 -195 0 -5 -4 -10 -8 -12 -4 -1 -41 -52 -82 -113 -40 -60
-86 -128 -102 -150 -16 -22 -35 -49 -42 -60 -8 -11 -54 -76 -102 -145 -96
-138 -334 -458 -358 -483 -9 -9 -16 -20 -16 -25 0 -6 -3 -12 -8 -14 -6 -2 -60
-67 -95 -113 -4 -5 -21 -26 -37 -45 -16 -19 -49 -58 -72 -86 -50 -60 -80 -84
-111 -89 -37 -7 -49 9 -53 67 -1 30 -4 58 -5 64 -1 5 0 11 1 14 1 3 3 23 5 45
3 48 14 182 20 249 2 27 7 67 11 90 3 22 7 55 9 71 7 72 16 151 20 165 3 8 7
35 11 60 6 48 10 67 19 115 16 87 25 133 29 160 8 53 36 210 41 225 2 8 7 35
10 60 4 24 8 47 10 50 1 3 6 28 9 55 4 28 11 68 16 90 5 22 11 58 14 80 4 23
8 50 10 61 4 22 16 109 21 159 2 17 7 62 11 100 9 84 9 229 0 305 -9 70 -34
180 -46 202 -6 10 -10 25 -10 33 0 8 -4 23 -9 33 -5 9 -24 48 -42 87 -19 38
-37 74 -42 80 -4 5 -21 31 -38 58 -45 69 -174 195 -250 245 -95 61 -181 90
-290 99 -160 12 -305 -62 -479 -244 -99 -104 -280 -338 -280 -363 0 -4 -4 -10
-9 -12 -5 -1 -32 -39 -60 -83 -28 -44 -54 -84 -59 -90 -11 -14 -159 -262 -226
-380 -31 -55 -61 -107 -67 -115 -5 -8 -12 -22 -16 -30 -3 -8 -36 -67 -71 -130
-36 -63 -79 -140 -95 -170 -17 -30 -47 -84 -67 -120 -20 -36 -40 -72 -43 -80
-4 -8 -25 -46 -47 -85 -23 -38 -45 -82 -51 -97 -6 -16 -16 -28 -22 -28 -6 0
-8 -3 -5 -6 4 -3 -9 -33 -28 -66 -19 -33 -34 -64 -34 -69 0 -5 -5 -9 -12 -9
-6 0 -8 -3 -5 -7 4 -3 3 -11 -2 -17 -5 -6 -28 -47 -51 -91 -70 -131 -75 -140
-85 -147 -5 -4 -6 -8 -1 -8 5 0 3 -8 -5 -17 -8 -10 -21 -31 -29 -48 -8 -16
-22 -42 -32 -56 -10 -14 -15 -29 -11 -33 3 -3 2 -6 -4 -6 -5 0 -15 -12 -22
-26 -17 -37 -22 -26 -10 21 6 22 12 49 14 60 4 25 12 60 23 105 5 19 9 38 10
43 1 4 3 9 3 12 1 3 2 8 3 13 1 4 8 34 16 67 7 33 15 65 16 70 1 6 19 69 39
140 20 72 38 137 40 145 3 8 25 96 50 195 25 99 48 187 52 195 3 8 7 20 8 25
2 6 10 37 19 70 9 33 18 67 20 75 2 8 14 51 26 95 63 231 72 286 67 390 -9
152 -59 263 -150 331 -93 68 -226 76 -303 18 -19 -15 -34 -24 -34 -20 0 8 -62
-62 -86 -99 -11 -16 -26 -46 -34 -65 -7 -19 -19 -48 -26 -65 -11 -26 -49 -164
-60 -220 -11 -57 -13 -66 -17 -73 -3 -4 -8 -24 -11 -44 -3 -21 -11 -59 -17
-85 -6 -27 -13 -59 -15 -73 -3 -14 -7 -33 -10 -42 -3 -10 -7 -30 -10 -45 -3
-16 -8 -37 -11 -48 -3 -11 -7 -29 -9 -40 -1 -11 -8 -42 -14 -70 -12 -50 -15
-61 -25 -125 -3 -19 -8 -42 -11 -50 -3 -8 -8 -26 -11 -40 -5 -27 -42 -213 -49
-245 -2 -11 -6 -31 -9 -45 -2 -14 -20 -99 -39 -190 -19 -91 -37 -178 -39 -195
-3 -16 -7 -37 -10 -45 -3 -8 -8 -33 -11 -55 -6 -45 -14 -90 -21 -121 -3 -12
-7 -39 -10 -60 -3 -21 -8 -48 -10 -60 -3 -12 -7 -39 -10 -60 -3 -21 -10 -64
-15 -94 -5 -30 -12 -73 -15 -95 -3 -22 -8 -53 -10 -70 -6 -33 -12 -80 -22
-165 -9 -73 -9 -295 -1 -345 4 -22 14 -59 22 -82 8 -22 12 -44 9 -47 -4 -3 -1
-6 5 -6 7 0 11 -3 10 -7 -6 -18 67 -128 115 -177 75 -74 134 -101 222 -100 39
0 80 3 92 7 94 25 169 107 307 332 37 61 71 117 76 125 41 67 120 202 120 205
0 2 14 28 31 57 33 55 51 89 244 453 32 61 74 139 93 175 20 36 50 94 69 130
18 36 38 72 43 80 8 13 61 109 190 345 18 33 57 101 86 152 30 51 54 94 54 96
0 6 81 143 169 284 42 68 80 132 86 143 5 11 13 20 17 20 5 0 8 4 8 9 0 14
160 243 227 326 143 176 240 218 288 125 9 -17 14 -30 11 -30 -2 0 2 -23 9
-51 13 -49 14 -308 1 -399 -3 -19 -7 -57 -10 -85 -6 -52 -15 -123 -22 -165 -2
-14 -6 -54 -10 -90 -3 -35 -7 -67 -10 -71 -2 -3 -6 -35 -9 -70 -3 -35 -10 -89
-15 -119 -5 -30 -11 -80 -15 -111 -3 -31 -7 -65 -9 -75 -2 -11 -7 -46 -10 -79
-9 -75 -14 -115 -22 -163 -3 -20 -7 -53 -9 -72 -9 -85 -16 -147 -20 -170 -4
-24 -8 -62 -21 -205 -8 -81 -8 -269 0 -328 27 -216 111 -392 253 -534 34 -35
64 -63 67 -63 3 0 28 -16 56 -36 27 -20 50 -33 50 -29 0 4 6 2 14 -4 29 -24
211 -70 241 -62 6 2 25 3 43 2 119 -3 322 148 567 424 44 49 85 95 90 101 10
12 59 70 116 140 19 23 47 57 62 75 45 54 338 446 403 539 32 47 62 90 67 95
16 20 227 327 227 331 0 3 18 29 40 59 22 30 40 57 40 60 0 3 18 30 40 60 22
30 40 56 40 58 0 5 186 288 200 304 5 7 15 24 22 38 6 14 15 25 20 25 4 0 8 4
8 10 0 5 34 61 75 125 41 63 75 117 75 120 0 3 5 11 10 18 6 7 34 48 62 92
131 205 383 593 506 778 24 37 47 67 49 67 4 0 -5 -103 -12 -130 -2 -8 -7 -40
-10 -70 -3 -30 -8 -66 -10 -80 -3 -14 -7 -47 -10 -75 -3 -27 -7 -66 -10 -85
-3 -19 -7 -57 -10 -85 -3 -27 -8 -61 -10 -75 -2 -14 -7 -52 -10 -85 -3 -33 -8
-71 -10 -85 -2 -14 -7 -54 -10 -90 -3 -36 -8 -72 -10 -80 -2 -8 -7 -46 -11
-85 -8 -87 -10 -107 -18 -170 -3 -27 -9 -77 -12 -110 -3 -33 -7 -76 -9 -95 -3
-19 -6 -57 -9 -85 -2 -27 -7 -72 -10 -100 -3 -27 -8 -74 -11 -102 -3 -29 -8
-79 -10 -111 -2 -32 -7 -83 -10 -113 -11 -124 -14 -157 -30 -359 -2 -25 -6
-83 -10 -130 -4 -47 -8 -112 -10 -145 -2 -33 -7 -103 -10 -155 -25 -384 -35
-898 -21 -1009 16 -124 73 -214 167 -265 118 -65 278 -47 372 40 34 31 78 90
81 106 1 7 4 18 8 23 9 14 18 75 33 220 2 28 7 66 10 85 3 19 7 55 10 80 3 25
8 62 10 83 3 20 7 54 10 75 2 20 7 57 10 82 3 25 7 61 10 80 3 19 7 53 9 75 3
22 8 56 11 75 2 19 7 58 10 85 2 28 7 68 10 90 3 22 8 56 10 75 1 19 6 55 9
80 3 25 8 65 11 90 5 48 12 113 20 170 2 19 7 67 11 105 3 39 8 79 10 90 2 11
7 47 10 80 3 33 8 74 10 90 2 17 5 48 8 70 2 22 7 58 10 80 6 47 15 122 21
185 2 25 6 61 9 80 5 33 8 63 22 205 3 33 7 76 10 95 3 19 7 62 9 95 3 33 7
80 10 105 3 25 8 68 10 95 3 28 7 70 9 95 3 25 7 68 10 95 3 28 8 68 11 90 3
22 7 78 11 125 3 47 7 96 9 110 2 14 7 61 10 105 3 44 7 100 10 125 3 25 7 81
10 125 3 44 8 100 10 125 31 310 34 677 8 785 -3 11 -6 27 -7 35 -15 95 -90
215 -169 268 -78 53 -143 72 -258 78 -66 3 -82 0 -125 -23z"/>
<path d="M8030 2773 c-89 -11 -201 -47 -260 -84 -8 -5 -25 -13 -38 -19 -12 -5
-57 -45 -101 -87 -140 -139 -180 -274 -160 -533 6 -76 67 -200 127 -255 31
-29 192 -112 237 -122 40 -9 221 -9 267 0 174 33 336 139 422 275 95 151 83
446 -23 592 -89 121 -227 201 -391 226 -19 3 -39 6 -45 7 -5 2 -21 2 -35 0z"/>
</g>
</svg>
