<?xml version="1.0" standalone="no"?>
<!DOCTYPE svg PUBLIC "-//W3C//DTD SVG 20010904//EN"
 "http://www.w3.org/TR/2001/REC-SVG-20010904/DTD/svg10.dtd">
<svg version="1.0" xmlns="http://www.w3.org/2000/svg"
 width="150.000000pt" height="150.000000pt" viewBox="0 0 150.000000 150.000000"
 preserveAspectRatio="xMidYMid meet">
<metadata>
Created by potrace 1.14, written by Peter Selinger 2001-2017
</metadata>
<g transform="translate(0.000000,150.000000) scale(0.100000,-0.100000)"
fill="#000000" stroke="none">
<path d="M770 1372 c-88 -48 -108 -166 -39 -231 12 -11 94 -62 181 -112 87
-50 160 -94 162 -98 4 -6 -72 -54 -165 -103 -95 -50 -188 -114 -203 -138 -62
-106 20 -237 142 -224 35 4 41 7 252 129 74 43 176 101 225 130 131 75 134 77
151 114 24 50 29 132 11 167 -24 47 -48 63 -330 224 -292 167 -322 178 -387
142z"/>
<path d="M621 1028 c-14 -5 -148 -79 -298 -165 -190 -108 -281 -166 -296 -187
-31 -43 -32 -132 -3 -189 19 -39 41 -53 296 -200 151 -88 288 -163 303 -169
15 -6 47 -7 70 -4 97 15 151 119 106 207 -23 46 -18 42 -204 149 -88 50 -164
95 -168 99 -6 6 103 81 118 81 3 0 38 20 78 45 41 25 78 45 81 45 4 0 22 11
41 25 84 65 86 186 2 242 -37 25 -92 34 -126 21z"/>
</g>
</svg>
