<svg width="50" height="31" viewBox="0 0 50 31" fill="none" xmlns="http://www.w3.org/2000/svg">
<path d="M36.2605 28.4841C36.2299 29.0035 36.0313 29.4255 35.6646 29.7501C35.2978 30.0747 34.87 30.237 34.381 30.237C33.8309 30.237 33.3725 30.0422 33.0058 29.6527C32.639 29.2632 32.4557 28.6627 32.4557 27.8511C32.4557 25.7412 32.5473 23.4527 32.7307 20.9857C32.9141 18.4863 33.1433 16.0193 33.4183 13.5847C33.6934 11.1177 33.9684 8.84549 34.2435 6.76802C33.235 8.29367 32.1348 9.98161 30.9429 11.8319C29.7816 13.6821 28.5897 15.5161 27.3673 17.3339C26.1448 19.1517 24.953 20.8234 23.7917 22.3491C22.6303 23.8423 21.576 25.0595 20.6286 26.0009C19.6812 26.9098 18.9019 27.3642 18.2907 27.3642C17.1599 27.3642 16.182 26.8936 15.3568 25.9522C14.5317 24.9784 14.1191 23.7611 14.1191 22.3004C14.1191 21.7161 14.1803 20.9208 14.3025 19.9145C14.4247 18.8758 14.5623 17.7884 14.7151 16.6523C14.8679 15.5161 15.0054 14.4612 15.1276 13.4874C15.2499 12.4811 15.311 11.7345 15.311 11.2476C15.311 10.7931 15.2652 10.4036 15.1735 10.079C15.1124 9.72193 14.9596 9.5434 14.7151 9.5434C14.3483 9.5434 13.8441 9.98161 13.2023 10.858C12.5605 11.702 11.8423 12.7895 11.0478 14.1203C10.2837 15.4512 9.48916 16.8632 8.66401 18.3564C7.86943 19.8496 7.12069 21.2616 6.41779 22.5925C5.71489 23.891 5.11895 24.9135 4.62997 25.6601C4.23268 26.3742 3.86595 26.8936 3.52978 27.2182C3.19361 27.5428 2.78104 27.7051 2.29207 27.7051C1.71141 27.7051 1.17659 27.3805 0.68762 26.7313C0.229207 26.082 0 25.2868 0 24.3454C0 23.7936 0.0916826 22.9334 0.275048 21.7648C0.458413 20.5637 0.68762 19.2491 0.962668 17.8208C1.26828 16.3926 1.55861 14.9968 1.83365 13.6334C2.13926 12.2376 2.39903 11.0528 2.61296 10.079C2.85744 8.97534 3.16305 8.22874 3.52978 7.83922C3.89651 7.44969 4.2938 7.25493 4.72166 7.25493C5.30231 7.25493 5.76073 7.48215 6.0969 7.9366C6.46363 8.35859 6.64699 9.02403 6.64699 9.93292C6.64699 10.0952 6.55531 10.5334 6.37194 11.2476C6.18858 11.9292 5.95937 12.7732 5.68432 13.7795C5.43984 14.7533 5.16479 15.7758 4.85918 16.847C4.58413 17.9182 4.35493 18.9083 4.17156 19.8172C4.8439 18.6161 5.5468 17.3177 6.28026 15.9219C7.04429 14.5261 7.80831 13.1465 8.57233 11.7832C9.33635 10.3874 10.1004 9.12141 10.8644 7.98529C11.6284 6.81671 12.3772 5.89159 13.1106 5.20992C13.8441 4.52824 14.547 4.18741 15.2193 4.18741C16.0139 4.18741 16.7474 4.44709 17.4197 4.96646C18.1226 5.48583 18.688 6.18373 19.1158 7.06017C19.5437 7.9366 19.7576 8.91042 19.7576 9.98161C19.7576 10.7282 19.6354 11.7832 19.3909 13.1465C19.1464 14.4774 18.8866 15.9219 18.6116 17.48C18.3671 19.0381 18.2143 20.5151 18.1532 21.9109C18.1532 22.2355 18.2449 22.3978 18.4282 22.3978C18.581 22.3978 18.7644 22.2842 18.9783 22.0569C19.8646 21.0182 20.8425 19.7685 21.9122 18.3077C22.9818 16.8146 24.0667 15.2402 25.1669 13.5847C26.2976 11.9292 27.4131 10.3062 28.5133 8.71565C29.6135 7.09263 30.6373 5.6319 31.5847 4.33348C32.5626 3.0026 33.4183 1.94763 34.1518 1.16858C34.9158 0.389526 35.5118 0 35.9396 0C36.8564 0 37.5593 0.275914 38.0483 0.827742C38.5373 1.37957 38.7818 2.3047 38.7818 3.60312C38.7818 4.64186 38.7054 5.98897 38.5526 7.64446C38.4303 9.29994 38.2622 11.1015 38.0483 13.0491C37.8649 14.9968 37.651 16.9606 37.4065 18.9407C37.1926 20.8884 36.9787 22.7061 36.7648 24.3941C36.5508 26.0496 36.3827 27.4129 36.2605 28.4841Z" fill="url(#paint0_linear_15_38)"/>
<path d="M46.3327 30.6752C45.6604 30.6752 45.0033 30.448 44.3615 29.9935C43.7503 29.5391 43.4447 28.7925 43.4447 27.7538C43.4447 26.9098 43.6433 26.2281 44.0406 25.7087C44.4379 25.1894 44.8963 24.8161 45.4159 24.5889C45.9354 24.3292 46.3938 24.1993 46.7911 24.1993C47.1884 24.1993 47.6315 24.2967 48.1205 24.4915C48.64 24.6862 49.0832 25.0271 49.4499 25.514C49.8166 25.9684 50 26.6501 50 27.559C50 28.4679 49.6333 29.2145 48.8998 29.7988C48.1663 30.3831 47.3106 30.6752 46.3327 30.6752Z" fill="url(#paint1_linear_15_38)"/>
<defs>
<linearGradient id="paint0_linear_15_38" x1="0.00654703" y1="15.3376" x2="49.9736" y2="15.3376" gradientUnits="userSpaceOnUse">
<stop offset="0.00289867" stop-color="#00D0C0"/>
<stop offset="1" stop-color="#85FCD9"/>
</linearGradient>
<linearGradient id="paint1_linear_15_38" x1="0.00654703" y1="15.3376" x2="49.9736" y2="15.3376" gradientUnits="userSpaceOnUse">
<stop offset="0.00289867" stop-color="#00D0C0"/>
<stop offset="1" stop-color="#85FCD9"/>
</linearGradient>
</defs>
</svg>
